<?xml version="1.0" encoding="utf-8"?>
<!DOCTYPE svg PUBLIC "-//W3C//DTD SVG 1.1//EN" "http://www.w3.org/Graphics/SVG/1.1/DTD/svg11.dtd">
<svg version="1.1" id="Layer_2_1_" xmlns="http://www.w3.org/2000/svg" xmlns:xlink="http://www.w3.org/1999/xlink"
	 width="181px" height="30px" viewBox="88 23 181 30">
      <defs></defs>
      <g id="Santander-Tag" stroke="none" stroke-width="1" fill="none" fill-rule="evenodd" transform="translate(88.000000, 23.000000)">
          <g id="Page-1">
              <polygon class="bank-tag" id="Fill-1" fill="#E41E26" points="0 29.5709311 100.733311 29.5709311 100.733311 0.295259016 0 0.295259016"></polygon>
              <g id="Group-25" transform="translate(6.786885, 5.062734)" fill="#FFFFFF">
                  <path d="M9.05798361,0.87602623 C9.05798361,2.79464918 12.3322131,4.92366557 12.3322131,7.10845246 C12.3322131,7.10845246 12.3322131,7.32651803 12.2357213,7.54723934 C15.2915902,8.18668197 17.4571967,9.67802623 17.4571967,11.4314033 C17.4571967,13.7826164 13.6299836,15.7059607 8.88093443,15.7396 L8.72719672,15.7396 C3.99113115,15.7396 0.148868852,13.8664197 0.148868852,11.5219934 C0.148868852,9.7733377 2.49359016,8.35163279 5.32372131,7.59445246 C5.32372131,8.56674754 8.54542623,11.6288131 8.61860656,12.8649115 C8.61860656,12.8649115 8.63631148,12.9752721 8.63631148,13.0997967 C8.63631148,13.1576328 8.63631148,13.2193049 8.61860656,13.2750754 C9.31972131,12.9103541 9.31972131,11.7781246 9.31972131,11.7781246 C9.31972131,9.09258361 6.18359016,7.90015738 6.18359016,5.25563279 C6.18359016,4.22815738 6.67254098,3.47068197 7.11014754,3.26117377 L7.11014754,4.0003541 C7.11014754,5.91956721 10.499459,8.06540328 10.499459,9.8143541 L10.499459,10.3941902 C11.2846721,10.0876 11.2846721,8.65320656 11.2846721,8.65320656 C11.2846721,6.23353443 8.13467213,4.8953377 8.13467213,2.12717377 C8.13467213,1.09881311 8.61860656,0.34517377 9.05798361,0.134485246 L9.05798361,0.87602623" id="Fill-5"></path>
                  <path d="M24.3454721,14.9947246 C22.6944885,14.9947246 21.4976361,14.5290852 21.4976361,14.5290852 L21.4976361,11.6753475 L21.9027836,11.6753475 C22.1196689,13.1832164 23.2690131,14.3346262 24.5850787,14.3346262 C25.8993738,14.3346262 26.8226852,13.6113803 26.8226852,12.461741 C26.8226852,11.2386262 25.5972098,10.679741 24.7833738,10.269282 L23.5983246,9.6829541 C22.4773082,9.12554426 21.573177,8.21462623 21.573177,6.95049508 C21.573177,5.35675738 22.750259,4.00056066 25.010882,4.00056066 C26.5494393,4.00056066 27.822718,4.51429836 27.822718,4.51429836 L27.822718,7.06351148 L27.4143246,7.06351148 C27.1685213,5.7082 26.4122262,4.63351148 24.8683574,4.63351148 C23.7240295,4.63351148 23.0409148,5.41783934 23.0409148,6.2219377 C23.0409148,7.26239672 23.7650459,7.7306918 24.6134066,8.15649508 L25.7958,8.7437082 C26.8681279,9.28429836 28.1992426,10.1961016 28.1992426,11.7370197 C28.1992426,13.7019705 26.8389148,14.9947246 24.3454721,14.9947246" id="Fill-7"></path>
                  <path d="M31.3483574,14.9391016 C30.3179311,14.9391016 29.6531115,14.260118 29.6531115,13.248577 C29.6531115,12.5197246 30.1813082,11.9605443 31.3483574,11.538577 L33.3870787,10.7991016 L33.3870787,10.1664459 C33.3870787,9.21008525 32.9479967,8.6249377 32.2819967,8.6249377 C31.8319967,8.6249377 31.3769803,8.8524459 31.1494721,9.21008525 C31.0577016,9.3532 31.0420623,9.54559344 31.0420623,9.69460984 C31.0420623,9.95103607 31.2120295,10.2576262 31.2120295,10.2576262 L30.2099311,10.7082164 C30.090423,10.497823 29.943177,10.1788393 29.943177,9.86457705 C29.943177,9.80172459 29.9535049,9.74034754 29.9535049,9.69460984 C30.0343574,9.15372459 30.4999967,8.78959344 31.1332426,8.4139541 C31.7511443,8.03182295 32.2819967,7.92883934 32.6635377,7.92883934 C34.5706525,7.92883934 34.8999639,9.43759344 34.8999639,9.93864262 L34.8999639,13.0659213 C34.8999639,13.5598885 34.9457016,13.8794623 35.3561607,13.8794623 C35.4765541,13.8794623 35.5497344,13.8794623 35.7205869,13.8166098 L36.084718,13.702118 L36.084718,14.1524131 L33.9630787,14.9391016 C33.6485213,14.7163148 33.4941934,14.3011344 33.4316361,13.9582492 C32.9358984,14.3796262 32.070423,14.9391016 31.3483574,14.9391016 M31.9692098,11.8867738 C31.6502262,12.0228066 31.0872098,12.279823 31.0872098,13.0083803 C31.0872098,13.4008393 31.3200295,14.0334951 32.1055377,14.0334951 C32.4799967,14.0334951 33.0105541,13.8166098 33.3870787,13.5194623 L33.3870787,11.2815607 L31.9692098,11.8867738" id="Fill-9"></path>
                  <path d="M36.5523344,14.7829148 L36.5523344,14.4261607 L37.0539738,14.3346852 C37.3496459,14.272423 37.5650557,14.0443246 37.5650557,13.7427508 L37.5650557,9.71075082 C37.5650557,9.3658 37.4006951,9.18284918 37.0929246,9.18284918 C36.9902361,9.18284918 36.8645311,9.19996393 36.7441377,9.24570164 L36.5523344,9.31770164 L36.5523344,8.86445574 L38.7324,7.92875082 L39.045777,7.92875082 L39.045777,9.04445574 C39.711482,8.30498033 40.4981705,7.92875082 41.1978098,7.92875082 C42.7407934,7.92875082 43.480859,9.03471803 43.480859,10.3153738 L43.480859,13.7427508 C43.480859,14.0443246 43.7080721,14.2892426 44.0093508,14.3346852 L44.5227934,14.4261607 L44.5227934,14.7829148 L40.9245639,14.7829148 L40.9245639,14.4261607 L41.425318,14.3346852 C41.7280721,14.272423 41.9659082,14.0443246 41.9659082,13.7427508 L41.9659082,10.3321934 C41.9659082,9.87717705 41.8455148,8.86445574 40.6401049,8.86445574 C39.9679082,8.86445574 39.4096131,9.27491475 39.0803016,9.57442295 L39.0803016,13.7427508 C39.0803016,14.0443246 39.3184328,14.272423 39.6197115,14.3346852 L40.1216459,14.4261607 L40.1216459,14.7829148 L36.5523344,14.7829148" id="Fill-11"></path>
                  <path d="M49.743118,8.85247541 L47.6264951,8.85247541 L47.6264951,12.5982459 C47.6264951,13.4289016 48.0646918,13.8794918 48.7005934,13.8794918 C48.9579049,13.8794918 49.3674787,13.8048361 49.743118,13.5938525 L49.908659,13.9582787 L48.5471508,14.8184426 C48.5471508,14.8184426 48.2747902,14.8641803 48.137577,14.8641803 C46.8223967,14.8641803 46.1094787,14.0901803 46.1094787,12.461623 L46.1094787,8.85247541 L45.0064623,8.85247541 L45.0064623,8.4762459 C45.0064623,8.4762459 46.6742656,7.83798361 47.3231508,6.28408197 L47.6264951,6.28408197 L47.6264951,8.20240984 L50.0163639,8.20240984 L49.743118,8.85247541" id="Fill-13"></path>
                  <path d="M52.298882,14.9391016 C51.2690459,14.9391016 50.6021607,14.260118 50.6021607,13.248577 C50.6021607,12.5197246 51.1321279,11.9605443 52.298882,11.538577 L54.3387836,10.7991016 L54.3387836,10.1664459 C54.3387836,9.21008525 53.8985213,8.6249377 53.2328164,8.6249377 C52.7775049,8.6249377 52.3289803,8.8524459 52.101177,9.21008525 C52.0099967,9.3532 51.9976033,9.54559344 51.9976033,9.69460984 C51.9976033,9.95103607 52.1631443,10.2576262 52.1631443,10.2576262 L51.1610459,10.7082164 C51.0409475,10.497823 50.8872098,10.1788393 50.8872098,9.86457705 C50.8872098,9.80172459 50.9040295,9.74034754 50.9040295,9.69460984 C50.9780951,9.15372459 51.4505213,8.78959344 52.0840623,8.4139541 C52.7031443,8.03182295 53.2328164,7.92883934 53.6152426,7.92883934 C55.521177,7.92883934 55.852259,9.43759344 55.852259,9.93864262 L55.852259,13.0659213 C55.852259,13.5598885 55.8979967,13.8794623 56.3075705,13.8794623 C56.4273738,13.8794623 56.5070459,13.8794623 56.6725869,13.8166098 L57.0317016,13.702118 L57.0317016,14.1524131 L54.9136033,14.9391016 C54.5999311,14.7163148 54.4456033,14.3011344 54.3895377,13.9582492 C53.882882,14.3796262 53.0221279,14.9391016 52.298882,14.9391016 M52.9209148,11.8867738 C52.5948492,12.0228066 52.0436361,12.279823 52.0436361,13.0083803 C52.0436361,13.4008393 52.2658328,14.0334951 53.0504557,14.0334951 C53.4325869,14.0334951 53.9613738,13.8166098 54.3387836,13.5194623 L54.3387836,11.2815607 L52.9209148,11.8867738" id="Fill-15"></path>
                  <path d="M57.5033016,14.7829148 L57.5033016,14.4261607 L57.9987443,14.3346852 C58.300318,14.272423 58.516023,14.0443246 58.516023,13.7427508 L58.516023,9.71075082 C58.516023,9.3658 58.3460557,9.18284918 58.0500885,9.18284918 C57.9406131,9.18284918 57.8169738,9.19996393 57.6962852,9.24570164 L57.5033016,9.31770164 L57.5033016,8.86445574 L59.6771705,7.92875082 L59.995859,7.92875082 L59.995859,9.04445574 C60.6621541,8.30498033 61.4491377,7.92875082 62.1499574,7.92875082 C63.6914656,7.92875082 64.4330066,9.03471803 64.4330066,10.3153738 L64.4330066,13.7427508 C64.4330066,14.0443246 64.6608098,14.2892426 64.9609082,14.3346852 L65.4734656,14.4261607 L65.4734656,14.7829148 L61.8767115,14.7829148 L61.8767115,14.4261607 L62.3703836,14.3346852 C62.6793344,14.272423 62.9174656,14.0443246 62.9174656,13.7427508 L62.9174656,10.3321934 C62.9174656,9.87717705 62.7973672,8.86445574 61.5854656,8.86445574 C60.9200557,8.86445574 60.3605803,9.27491475 60.024482,9.57442295 L60.024482,13.7427508 C60.024482,14.0443246 60.2696951,14.272423 60.5709738,14.3346852 L61.072023,14.4261607 L61.072023,14.7829148 L57.5033016,14.7829148" id="Fill-17"></path>
                  <path d="M69.316377,14.9391016 C67.8985082,14.9391016 66.1858525,13.8794623 66.1858525,11.5837246 C66.1858525,9.57421639 67.7447705,7.92883934 69.8295246,7.92883934 C70.5291639,7.92883934 71.0257869,8.0654623 71.389623,8.21979016 L71.389623,4.75847869 C71.389623,4.39464262 71.1966393,4.28605246 70.9511311,4.28605246 C70.8153934,4.28605246 70.6607705,4.31408525 70.5291639,4.36483934 L70.2275902,4.46811803 L70.2275902,4.01752787 L72.5847049,3.02192131 L72.9030984,3.02192131 L72.9030984,12.9753311 C72.9030984,13.5486754 72.9945738,13.8794623 73.4003115,13.8794623 C73.5251311,13.8794623 73.5991967,13.8794623 73.7632623,13.8166098 L74.1273934,13.702118 L74.1273934,14.1524131 L72.0095902,14.9391016 C71.6799836,14.7163148 71.508541,14.2890361 71.4353607,13.9417246 C71.0429016,14.3628066 70.3308689,14.9391016 69.316377,14.9391016 M69.9947705,8.56680656 C68.9088689,8.56680656 67.7902131,9.26260984 67.7902131,11.2815607 C67.7902131,12.9753311 68.635623,13.9986754 69.9664426,13.9986754 C70.7690656,13.9986754 71.2701148,13.5324459 71.389623,13.2922492 L71.389623,9.36588852 C71.1966393,8.86926557 70.6324426,8.56680656 69.9947705,8.56680656" id="Fill-19"></path>
                  <path d="M76.3373803,10.8906656 L76.3373803,10.9656164 C76.3199705,12.9748295 77.4699049,13.9872557 78.9042984,13.9872557 C79.6378721,13.9872557 80.2994459,13.7143049 80.8297082,13.304141 L80.8297082,13.9126 C80.2256754,14.4711902 79.3020689,14.9394852 78.1704295,14.9394852 C75.8085934,14.9394852 74.7651836,13.1734197 74.7651836,11.4926328 C74.7651836,9.52856721 76.2636098,7.92892787 78.1990525,7.92892787 C79.7871836,7.92892787 81.0280033,9.0443377 81.0280033,10.6967967 L81.0280033,10.8906656 L76.3373803,10.8906656 Z M79.4389869,10.269223 L79.4389869,10.2417803 C79.4389869,9.10866557 78.8007246,8.56158361 78.0456098,8.56158361 C77.1960689,8.56158361 76.5637082,9.12578033 76.3813475,10.269223 L79.4389869,10.269223 L79.4389869,10.269223 Z" id="Fill-21"></path>
                  <path d="M81.9213344,14.7829148 L81.9213344,14.4261607 L82.4173672,14.3346852 C82.708023,14.272423 82.9355311,14.0443246 82.9355311,13.7427508 L82.9355311,9.71075082 C82.9355311,9.3658 82.7643836,9.18284918 82.4631049,9.18284918 C82.3548098,9.18284918 82.2355967,9.19996393 82.1157934,9.24570164 L81.9213344,9.31770164 L81.9213344,8.86445574 L84.0674656,7.92875082 L84.3867443,7.92875082 L84.3867443,9.39176721 C84.9285148,8.33920984 85.5833016,7.90012787 86.3230721,7.90012787 C86.9262197,7.90012787 87.0799574,8.05002951 87.0799574,8.05002951 L87.0799574,9.65527541 L86.7777934,9.65527541 C86.7037279,9.22681639 86.4145475,9.0173082 85.9645475,9.0173082 C85.4755967,9.0173082 84.8706787,9.15363607 84.4495967,10.0297344 L84.4495967,13.7427508 C84.4495967,14.0443246 84.7464492,14.2892426 85.0368098,14.3346852 L85.7662525,14.4261607 L85.7662525,14.7829148 L81.9213344,14.7829148" id="Fill-23"></path>
              </g>
          </g>
      </g>
  </svg>
