<?xml version="1.0" encoding="utf-8"?>
<!DOCTYPE svg PUBLIC "-//W3C//DTD SVG 1.1//EN" "http://www.w3.org/Graphics/SVG/1.1/DTD/svg11.dtd">
<svg version="1.1" id="Layer_2_1_" xmlns="http://www.w3.org/2000/svg" xmlns:xlink="http://www.w3.org/1999/xlink"
	width="49" height="7" viewBox="0 0 49 7">
  <g fill-rule="evenodd">
    <path d="M3.4154749 1.55375c-1.23490565 0-1.88578258.30675-1.88578258.79125 0 .26625.17349915.4435.51947685.56475.6501115.226 1.63089194.15375 2.84104845.30675 1.48214194.1855 2.1899164.686 2.1899164 1.66275 0 1.22625-1.1359091 1.94425-3.25259864 1.94425-1.51505575 0-2.68464408-.3145-3.54958834-.98425L.8214076 5.137c.955521.57275 1.9271162.83925 3.0145476.83925 1.41656946 0 2.17409733-.40375 2.17409733-1.033 0-.8315-1.01292882-.8315-2.76680103-.94425C1.40620176 3.878.48436 3.596.48436 2.474c0-1.0895 1.07059176-1.77525 3.00612778-1.77525 1.2841488 0 2.36316038.29025 3.2273392.8635l-.60086836.65325c-.88892796-.4435-1.76229202-.66175-2.7014837-.66175"/>
    <polygon points="9.45227551 6.686075 9.45227551 0.844075 15.4645311 0.844075 15.4645311 1.723575 10.4407103 1.723575 10.4407103 3.216575 13.933146 3.216575 13.933146 4.096075 10.4407103 4.096075 10.4407103 5.806575 15.695438 5.806575 15.695438 6.686075"/>
    <polygon points="17.8450414 6.686075 17.8450414 0.844075 18.8337313 0.844075 18.8337313 5.806575 23.4370718 5.806575 23.4370718 6.686075"/>
    <polygon points="25.2572309 6.686075 25.2572309 0.844075 31.2689762 0.844075 31.2689762 1.723575 26.2451554 1.723575 26.2451554 3.216575 29.7375911 3.216575 29.7375911 4.096075 26.2451554 4.096075 26.2451554 5.806575 31.4998831 5.806575 31.4998831 6.686075"/>
    <path d="M39.3966456 2.490275c-.6256175-.65375-1.4413186-.944-2.5364044-.944-1.6638057 0-2.7920605.93575-2.7920605 2.20225 0 1.31575 1.0871763 2.21175 2.8502338 2.21175 1.0703366 0 1.8526136-.29075 2.4866509-.9605l.8481046.46025c-.8644339.99275-1.9102766 1.3875-3.3929288 1.3875-1.0376779 0-1.9763593-.29025-2.6272363-.7745-.7983512-.58875-1.1940823-1.372-1.1940823-2.3245 0-.93575.4036407-1.71 1.210922-2.3075.6585313-.49225 1.5895583-.783 2.6103966-.783 1.4663229 0 2.6522406.52475 3.4342624 1.51775l-.897858.3145z"/>
    <polygon points="45.2367288 1.723675 45.2367288 6.686175 44.2488042 6.686175 44.2488042 1.723675 41.399336 1.723675 41.399336 0.844175 48.086197 0.844175 48.086197 1.723675"/>
  </g>
</svg>
